<?xml version="1.0" encoding="UTF-8"?>
<svg width="325px" height="132px" viewBox="0 0 325 132" version="1.1" xmlns="http://www.w3.org/2000/svg" xmlns:xlink="http://www.w3.org/1999/xlink">
    <title>down-arrow-left-small</title>
    <g id="Design" stroke="none" stroke-width="1" fill="none" fill-rule="evenodd">
        <g id="Group" transform="translate(1.000000, 0.000000)" stroke="#50E0B5">
            <g id="down-arrow-left-small" transform="translate(161.000000, 65.500000) scale(-1, 1) translate(-161.000000, -65.500000) ">
                <g id="Group-7" transform="translate(170.765163, 60.000000) scale(-1, 1) translate(-170.765163, -60.000000) translate(19.530327, 0.000000)" stroke-width="2">
                    <path d="M0,0 L0,45 C4.6934861e-15,53.2842712 6.71572875,60 15,60 L287.469673,60 C295.753945,60 302.469673,66.7157288 302.469673,75 L302.469673,120 L302.469673,120" id="Path-3-Copy-2"></path>
                </g>
                <g id="Group-25-Copy-13" transform="translate(0.000000, 111.000000)" fill="#50E0B5" fill-rule="nonzero" stroke-width="1.698934">
                    <g id="Group">
                        <polygon id="Path" points="20.0311042 12 0 1.53186023 0.732917719 0 20.0311042 10.0851212 39.3292907 0 40.0622084 1.53186023"></polygon>
                    </g>
                    <g id="Group" transform="translate(0.000000, 8.000000)">
                        <polygon id="Path" points="20.0311042 12 0 1.53186023 0.732917719 0 20.0311042 10.0851212 39.3292907 0 40.0622084 1.53186023"></polygon>
                    </g>
                </g>
            </g>
        </g>
    </g>
</svg>